<svg width="299" height="300" viewBox="0 0 299 300" fill="none" xmlns="http://www.w3.org/2000/svg">
<path fill-rule="evenodd" clip-rule="evenodd" d="M60.5747 134H0C7.9865 58.6801 71.7189 0 149.157 0C226.595 0 290.327 58.6801 298.313 134H237.739C230.19 91.9274 193.402 60 149.157 60C104.912 60 68.1236 91.9274 60.5747 134ZM61.865 172H0.75862C11.4015 244.413 73.7876 300 149.157 300C224.526 300 286.912 244.413 297.555 172H236.448C226.632 211.071 191.273 240 149.157 240C107.04 240 71.6809 211.071 61.865 172Z" fill="white" fill-opacity="0.25"/>
<path fill-rule="evenodd" clip-rule="evenodd" d="M149 100C121.386 100 99 122.386 99 150C99 177.614 121.386 200 149 200C176.614 200 199 177.614 199 150C199 122.386 176.614 100 149 100ZM149 125C135.193 125 124 136.193 124 150C124 163.807 135.193 175 149 175C162.807 175 174 163.807 174 150C174 136.193 162.807 125 149 125Z" fill="white" fill-opacity="0.25"/>
</svg>
